<?xml version="1.0" encoding="utf-8"?>
<svg id="master-artboard" viewBox="0 0 612 792" version="1.1" xmlns="http://www.w3.org/2000/svg" x="0px" y="0px" style="enable-background:new 0 0 612 792;" width="612px" height="792px">

<path class="st3" d="M211.2,334.2h0.8c0,0.4,0.2,0.6,0.4,0.6h0.5l0.7-0.6h0.5c0,0.2,0.2,0.4,0.5,0.6h0.3l0.8-0.6h25.9v0.7H216&#10;&#9;&#9;l-1.5,0.2l-0.8-0.2l-1.2,0.2l-1.2-0.2l-0.5,0.2v-0.2L211.2,334.2L211.2,334.2z M209.4,334.2l0.4,0.7h-1.5v-0.1&#10;&#9;&#9;c0.3,0,0.4-0.2,0.4-0.5l0.1-0.2H209.4L209.4,334.2z M185.2,334.2h0.1l0.8,0.9l-0.7-0.2h-0.7l-0.1,0.2h-0.1v-0.2L185.2,334.2&#10;&#9;&#9;L185.2,334.2z M152.7,334.2h26l0.7,0.6h0.4l0.7-0.6h0.3l0.7,0.6h0.5l0.7-0.6h0.5c0,0.4,0.2,0.6,0.5,0.6v0.1l-2,0.2l-1.2-0.2&#10;&#9;&#9;l-0.5,0.2l-1.6-0.2h-25.6V334.2L152.7,334.2z M214.7,333.4h0.3l0.3,0.3v0.3l-0.3,0.3h-0.3l-0.3-0.3v-0.3L214.7,333.4L214.7,333.4z&#10;&#9;&#9; M179.4,333.4h0.5l0.1,0.6l-0.4,0.3h-0.3l-0.3-0.3v-0.3L179.4,333.4L179.4,333.4z M241.7,333.3h0.1l1.5,0.5c0,0.1-0.4,0.4-1.2,0.7&#10;&#9;&#9;h-0.3l-0.7-0.6L241.7,333.3L241.7,333.3z M212.9,333.3l0.3,0.6c-0.1,0.4-0.3,0.6-0.5,0.6c-0.3-0.1-0.4-0.3-0.5-0.6&#10;&#9;&#9;C212.2,333.5,212.5,333.3,212.9,333.3L212.9,333.3z M181.4,333.3h0.4c0.3,0,0.4,0.2,0.4,0.6c-0.1,0.4-0.3,0.6-0.4,0.6h-0.4&#10;&#9;&#9;l-0.1-0.7L181.4,333.3L181.4,333.3z M210.4,333.1c0.4,0.1,0.5,0.3,0.5,0.5v0.6l-0.1,0.2l-0.4,0.1v0.2c-0.4-0.2-0.6-0.4-0.7-0.6&#10;&#9;&#9;v-0.3C209.9,333.3,210.1,333.1,210.4,333.1L210.4,333.1z M197.4,333.1l0.4,1.1l-0.4,0.3h-0.5l-0.3-0.3v-0.6&#10;&#9;&#9;C196.7,333.3,197,333.1,197.4,333.1L197.4,333.1z M184.2,333.1c0,0.2,0.1,0.3,0.4,0.3l0.1,0.5c0,0.4-0.2,0.6-0.7,0.6v0.2&#10;&#9;&#9;c-0.4-0.1-0.7-0.3-0.7-0.5v-0.6C183.4,333.4,183.7,333.2,184.2,333.1L184.2,333.1z M152.5,333.1l0.7,0.8l-0.5,0.6h-0.4&#10;&#9;&#9;c-0.8-0.3-1.2-0.6-1.2-0.7C151.5,333.7,152,333.5,152.5,333.1L152.5,333.1z M207.5,333c0.6,0,0.9,0.3,0.9,1.1&#10;&#9;&#9;c0,0.3-0.3,0.6-0.8,0.8c-0.4-0.2-0.6-0.4-0.7-0.6v-0.6L207.5,333L207.5,333z M186.5,333h0.3c0.3,0.2,0.6,0.5,0.7,0.9&#10;&#9;&#9;c-0.1,0.4-0.3,0.7-0.7,0.9h-0.3c-0.3-0.2-0.5-0.5-0.7-0.9C186,333.4,186.2,333.1,186.5,333L186.5,333z M184.5,332.8h1.5&#10;&#9;&#9;c-0.2,0.5-0.5,0.8-0.9,0.8L184.5,332.8L184.5,332.8z M212.7,332.7l1.5,0.1l0.4-0.1l0.9,0.1h26.1v0.8h-25.9&#10;&#9;&#9;c-0.4-0.4-0.7-0.6-1.1-0.6l-0.8,0.6h-0.3l-0.7-0.6h-0.1c-0.3,0-0.7,0.2-1.1,0.6h-0.5l-0.4-0.8h0.3L212.7,332.7L212.7,332.7z&#10;&#9;&#9; M209.8,332.7v0.1l-0.4,0.8H209c-0.2-0.1-0.4-0.3-0.5-0.8L209.8,332.7L209.8,332.7z M202.5,332.7h0.8c0,0.4,0.1,0.6,0.3,0.6&#10;&#9;&#9;c0-0.3,0.6-0.5,1.8-0.5h1.3l0.1-0.1h0.1v0.1l-0.3,0.8h-2.4l-0.3,0.3l0.3,0.3h2.4l0.3,0.9l-0.1-0.2h-1.5c-0.9,0-1.6-0.1-1.9-0.5&#10;&#9;&#9;h-0.1v0.6h-0.8l0.1-1.4L202.5,332.7L202.5,332.7z M187.3,332.7l0.1,0.1h1.8c0.7,0,1.3,0.2,1.7,0.5c0-0.4,0.1-0.6,0.3-0.6h0.5v0.3&#10;&#9;&#9;c0,0.5-0.1,0.8-0.3,0.8l0.4,1.4H191v-0.6h-0.1c-0.3,0.3-1,0.5-1.9,0.5h-1.3l-0.1,0.2h-0.1v-0.2l0.5-0.7h2.2l0.3-0.3l-0.3-0.3h-2.2&#10;&#9;&#9;l-0.5-0.8V332.7L187.3,332.7z M179.6,332.7l0.8,0.1l1.2-0.1l1.6,0.1l0.1-0.1l0.1,0.1v0.2c-0.2,0-0.4,0.2-0.4,0.6h-0.5l-0.7-0.6&#10;&#9;&#9;h-0.5l-0.7,0.6h-0.3c-0.4-0.4-0.7-0.6-1.1-0.6c-0.4,0.4-0.7,0.6-1.1,0.6h-25.6v-0.8h25.7L179.6,332.7L179.6,332.7z M198.9,332.1&#10;&#9;&#9;h0.1c1.4,1.1,2.6,1.7,3.5,1.7v0.1l-2.4,0.9l-1.1,0.9h-0.1l-0.8-1.1l0.3-0.8l-0.3-0.9L198.9,332.1L198.9,332.1z M195.5,331.9&#10;&#9;&#9;c0.1,0.4,0.4,0.7,0.7,0.9l-0.1,1.1l0.1,1.1c-0.4,0.2-0.5,0.5-0.5,0.8h-0.3c-1.6-1.1-2.8-1.7-3.6-1.7v-0.3&#10;&#9;&#9;C193.5,333.3,194.7,332.7,195.5,331.9L195.5,331.9z" style="fill: rgb(255, 255, 255);" transform="matrix(1, 0, 0, 1, 0, 0)"/><path class="st3" d="M260.6,334.1h0.5v0.7l-0.5,0.2l-0.3-0.5v-0.2L260.6,334.1L260.6,334.1z M351.1,334l0.5,0.5v0.2l-0.4,0.5&#10;&#9;&#9;l-0.4-0.2v-0.6L351.1,334L351.1,334z M349.9,333.8h0.3l0.4,0.5v0.5l-0.4,0.5h-0.3l-0.4-0.5v-0.5L349.9,333.8L349.9,333.8z&#10;&#9;&#9; M261.8,333.8h0.3l0.4,0.5v0.5l-0.4,0.5h-0.3l-0.4-0.5v-0.5L261.8,333.8L261.8,333.8z M303.6,334.3l2.4,0.5l2.7-0.5&#10;&#9;&#9;c0-0.3-0.5-0.5-1.6-0.6c-0.5,0.1-0.8,0.4-0.8,0.8H306c0-0.4-0.4-0.7-1.1-0.8C304.1,333.8,303.6,334,303.6,334.3L303.6,334.3z&#10;&#9;&#9; M310.2,334.3v0.2c0.8,0.7,1.5,1.1,2,1.1c1.2,0,1.7-0.6,1.7-1.8l-0.1-0.1L310.2,334.3L310.2,334.3z M298.5,333.5l-0.1,0.1v0.2&#10;&#9;&#9;c0,0.9,0.5,1.4,1.6,1.7c0.7,0,1.4-0.3,2.2-1.1v-0.2L298.5,333.5L298.5,333.5z M318.4,333c0.2,0,0.6,0.4,1.2,1.2l0.1-0.1l0.7,0.1h26&#10;&#9;&#9;c0.6,0,1.3-0.2,2-0.8h0.1c0.4,0.1,0.7,0.5,0.7,1.1c0,0.6-0.3,0.9-1,0.9l-0.8-0.6h-28c-0.5,0.6-0.9,0.9-1.2,0.9&#10;&#9;&#9;c-0.5,0-0.9-0.4-1.2-1.2C317.1,333.6,317.6,333,318.4,333L318.4,333z M293.9,333c0.6,0.2,0.9,0.5,0.9,0.8v0.8&#10;&#9;&#9;c0,0.8-0.4,1.2-1.1,1.2c-0.3,0-0.7-0.3-1.2-0.9h-28.3c0,0.4-0.3,0.6-0.8,0.6c-0.5-0.2-0.7-0.5-0.7-1.1c0-0.6,0.3-0.9,0.9-0.9&#10;&#9;&#9;l0.9,0.8H292l0.1-0.1l0.1,0.1h0.1C293,333.4,293.5,333,293.9,333L293.9,333z M298.5,333.2l4.2,0.9c0.7-0.5,1.5-0.8,2.3-0.8h0.1&#10;&#9;&#9;l1.3,0.5c0.1-0.3,0.4-0.5,0.8-0.5h0.1c0.9,0,1.6,0.3,2.1,0.8l4.3-0.9V333c-0.7-0.7-1.3-1.1-1.9-1.1h-1.5c-0.7,0-2.1,0.3-4.3,0.9&#10;&#9;&#9;c-2.1-0.6-3.5-0.9-4.3-0.9h-1.5C299.1,332.4,298.5,332.8,298.5,333.2L298.5,333.2z M300.9,331.5h0.9c1.1,0,2.5,0.3,4.3,0.8&#10;&#9;&#9;c1.9-0.5,3.3-0.8,4-0.8h1.2c1.2,0,2.1,0.6,2.7,1.7l0.7-0.1h2.2l1.7,0.3v0.2l-1.6-0.2h-1.2l-1.6,0.2l0.1,0.6c-0.4,1.3-0.9,2-1.7,2&#10;&#9;&#9;h-0.4c-0.7,0-1.6-0.5-3-1.5l-3.4,0.6l-3.1-0.6c-0.9,1-1.8,1.5-2.7,1.5H300c-1.3-0.2-2-0.9-2-2.1l0.1-0.5H298l-1.5-0.2h-0.9&#10;&#9;&#9;l-1.9,0.2h-0.1v-0.2l1.5-0.3h2.6l0.7,0.1C298.8,332.1,299.7,331.5,300.9,331.5L300.9,331.5z" style="fill: rgb(255, 255, 255);" transform="matrix(1, 0, 0, 1, 0, 0)"/><path class="st3" d="M414.7,337.1h0.3l0.3,0.3v0.5l-0.4,0.2l-0.4-0.2v-0.5L414.7,337.1L414.7,337.1z M414.7,333.8h0.3&#10;&#9;&#9;c0,0.7,0.4,1.6,1.1,2.4v0.3h-0.3l-0.7-0.5c0,0.6-0.1,0.9-0.4,0.9c-0.1-0.6-0.3-0.9-0.4-0.9l-0.4,0.5h-0.3v-0.3&#10;&#9;&#9;C414.4,335.3,414.7,334.5,414.7,333.8L414.7,333.8z M428.3,333.5c0,0.2,0.5,0.7,1.5,1.4c0,0.3,0.1,0.5,0.4,0.5v0.6h-0.1&#10;&#9;&#9;c-0.2,0-0.3-0.2-0.3-0.5h-0.3v0.5c-0.4-0.2-0.5-0.6-0.5-1.2h-0.4v0.3h-0.1l-0.1-0.2h-0.1l-0.4,1.1h-0.3v-0.3l0.9-1.4v-0.2h-0.1&#10;&#9;&#9;l-0.4,0.3h-0.1v-0.8L428.3,333.5L428.3,333.5z M412.4,333.5l0.3,0.3h0.7v-0.3h0.3v0.5l-0.5,0.6h-0.5l-0.1-0.1l-0.1,0.1h-0.4v-0.1&#10;&#9;&#9;L412.4,333.5L412.4,333.5z M401.5,333.5l0.4,0.2v0.8h-0.1l-0.4-0.3l-0.3,0.3c0.5,0,0.8,0.3,0.8,1.1h0.3v0.3l-0.3,0.3&#10;&#9;&#9;c-0.2-0.8-0.4-1.2-0.5-1.2l-0.1,0.2h-0.1c0-0.3-0.1-0.5-0.3-0.5c-0.2,0.9-0.4,1.4-0.7,1.4l-0.1-0.5h-0.1c0,0.3-0.1,0.5-0.3,0.5&#10;&#9;&#9;l-0.1-0.2v-0.5l0.9-0.9C400.6,334.4,401,334.1,401.5,333.5L401.5,333.5z M416.1,333.3h0.1c0,0.3,0.1,0.5,0.3,0.5h0.5l0.4-0.3&#10;&#9;&#9;l0.4,0.9v0.1h-0.3l-0.1-0.1l-0.1,0.1h-0.7l-0.7-0.7L416.1,333.3L416.1,333.3z M425.1,333.2c0.2,0,0.3,0.5,0.4,1.4l0.4,0.3l0.7-0.3&#10;&#9;&#9;v0.2l-0.1,0.6c0.4,0,0.5-0.5,0.5-1.4l0.4-0.3h0.1c0,0.5,0.1,0.8,0.3,1.1l-0.8,0.9h-0.7c-0.6-0.2-1.1-0.9-1.5-2v-0.2L425.1,333.2&#10;&#9;&#9;L425.1,333.2z M404.3,333.2h0.3l0.3,0.3c-0.2,0.9-0.7,1.6-1.3,2.1h-0.8l-0.8-0.9c0.2-0.2,0.3-0.6,0.3-1.2c0.3,0,0.5,0.6,0.7,1.7&#10;&#9;&#9;h0.4V335l-0.1-0.5h0.1l0.7,0.3l0.4-0.8l-0.1-0.1v-0.2L404.3,333.2L404.3,333.2z M410.7,332.9v1.2l0.1-0.1h0.3l0.3,0.3v1.2l1.1,0.3&#10;&#9;&#9;l-0.5-0.8v-0.2h0.1l0.5,0.3c0.8,0,1.3-0.6,1.5-1.8h0.1l0.1,0.1v0.3c0,0.9-0.5,1.7-1.5,2.4l-1.1,0.3h-0.5c-0.6,0-1.9-0.8-3.6-2.4&#10;&#9;&#9;l-0.5-0.3l-0.1,0.2v0.1c0.5,0,1,0.8,1.5,2.3v0.2l-0.3,0.3h-0.3v-0.7l-0.4-1.2h-0.3l-0.9,0.2l-0.1-0.2v-0.3h0.4v-0.3h-0.4&#10;&#9;&#9;c-0.2,0-0.4,0.7-0.7,2l-0.5,0.2v-0.2l0.1-0.6l-0.3-0.3h-0.1c0,0.7-0.2,1.1-0.5,1.1l-0.4-0.2v-0.1l1.7-2.1c0.9-0.1,1.5-0.3,1.6-0.5&#10;&#9;&#9;h0.3l0.7,0.2l0.1-0.5h0.3c0,0.5,0.3,0.8,0.9,0.8v0.1l-0.1,0.2c0,0.4,0.4,1,1.2,1.7h0.3v-0.3c-0.5,0-0.8-0.5-0.9-1.4l-0.3-0.3&#10;&#9;&#9;l0.8-0.9L410.7,332.9L410.7,332.9z M414.2,332.6l0.1,0.2h0.1l0.1-0.2h0.1l0.1,0.2v-0.2l0.1,0.2h0.3l0.1-0.2h0.1&#10;&#9;&#9;c0-0.3-0.1-0.5-0.4-0.5l0.3-0.3l0.3,0.3l0.1-0.6h-0.4c-0.3,0.4-0.6,0.6-0.9,0.6L414.2,332.6L414.2,332.6z M413.6,331.2v0.3&#10;&#9;&#9;c0.3,0,0.4,0.2,0.4,0.6l0.5-0.3l-0.8-0.6H413.6L413.6,331.2z M368.5,329.6h0.4l0.1,0.8l-0.7,0.2v0.2c0,0.2,0.4,0.3,1.1,0.3v0.2&#10;&#9;&#9;l0.7-0.2h39.1v0.2l-0.1,0.8l0.1,0.1h0.1c0.9-1,1.7-1.6,2.6-1.8c0.8,0.2,1.4,0.4,1.7,0.7l0.1-0.5h0.4l0.1,0.2h0.1&#10;&#9;&#9;c0.1-0.6,0.3-0.9,0.4-0.9c0.1,0,0.3,0.3,0.4,0.9l0.1-0.2h0.3l0.5,0.5c0-0.2,0.5-0.5,1.5-0.7c1,0.2,1.9,0.8,2.7,1.8l0.1-0.1h0.1&#10;&#9;&#9;l-0.1-0.8v-0.2h40.6l0.3-0.3v-0.2c-0.5,0-0.7-0.2-0.7-0.5l0.1-0.5h0.7l0.5,0.3v0.9l-0.3,0.5v0.5h0.3v0.9c0,0.3-0.4,0.5-1.1,0.6&#10;&#9;&#9;l-0.3-0.5v-0.2c0-0.2,0.2-0.3,0.7-0.3v-0.5l-1.9-0.3h-38.1l-0.3,0.3l0.1,0.1h39.5v0.3l-0.5,0.1v-0.1l-0.1,0.1h-0.3v-0.1l-1.3,0.1&#10;&#9;&#9;h-37.2v0.2l0.1,0.5c-0.2,0-0.3,0.2-0.3,0.5l-0.1,0.2h-0.1l-0.1-0.2l0.1-0.8v-0.2l-0.3-0.3l-0.1,0.1l-1.6-1.5l-1.2-0.3l-1.2,0.3&#10;&#9;&#9;c0,0.2,0.4,0.3,1.2,0.5l0.3,0.9v0.3l-0.4,0.5c-0.5,0-0.8-0.3-0.8-0.9h-0.1l-0.3,0.3l0.4,0.6l-0.1,0.2h-0.8c0,1,0.4,1.7,1.3,2&#10;&#9;&#9;l0.7-0.3l0.1,0.2v0.1l-0.4,0.5v0.2l0.9-0.3v-1.2l0.3-0.3l0.4,0.1v-1.2c0.3,0.1,0.7,0.5,1.2,1.2c-0.2,0-0.4,0.4-0.5,1.2&#10;&#9;&#9;c-0.4,0.2-0.6,0.4-0.7,0.6h0.3c0.8-0.7,1.2-1.3,1.2-1.7l-0.1-0.2c0.6,0,0.9-0.3,0.9-0.9h0.3l0.1,0.5l0.7-0.2h0.3&#10;&#9;&#9;c0.2,0.2,0.8,0.4,1.8,0.5l1.6,2.1v0.1l-0.7,0.2l-0.5-1.2c0,0.4-0.1,0.6-0.3,0.6l0.3,0.6h-0.1c-0.4-0.2-0.7-0.6-0.7-1.2v-0.6&#10;&#9;&#9;l-0.3-0.3h-0.5v0.3h0.4v0.2l-0.1,0.2v0.2l-0.9-0.2h-0.1l-0.5,0.8v1.2h-0.3l-0.3-0.3v-0.2c0.5-1.5,1-2.3,1.5-2.3V334h-0.4l-3,2.3&#10;&#9;&#9;l-0.9,0.3h-0.5c-1.2,0-2-0.8-2.6-2.4c0-0.6-0.1-0.9-0.3-0.9h-0.4l-0.1,0.2c-1-0.1-1.5-0.3-1.5-0.5l0.4-0.5l-0.3-0.3H413&#10;&#9;&#9;c0,0.5-0.1,0.8-0.3,1.1c-0.5-0.2-0.8-0.4-0.8-0.6v-0.3c0-0.8,0.5-1.2,1.5-1.2v-0.2l-1.4-0.3c-0.7,0-1.6,0.6-2.6,1.8h-0.3l-0.1-0.1&#10;&#9;&#9;l-0.1,0.1v0.2l0.1,0.6l-0.1,0.6h-0.1c0-0.4-0.1-0.6-0.4-0.6l0.1-0.2v-0.1h-0.1l0.1-0.2v-0.3h-38.7l-1-0.1l0.3-0.3h38.3l0.5-0.1&#10;&#9;&#9;l0.5,0.1l0.1-0.1v-0.2l-0.1-0.2H370c-1.1,0-1.6,0.2-1.6,0.6v0.2c0.4,0,0.7,0.1,0.7,0.3v0.2l-0.4,0.5c-0.6-0.2-0.9-0.3-0.9-0.6v-0.8&#10;&#9;&#9;l0.4-0.6l-0.4-0.5v-0.3C367.7,329.9,368,329.6,368.5,329.6L368.5,329.6z" style="fill: rgb(255, 255, 255);" transform="matrix(1, 0, 0, 1, 0, 0)"/><path class="st3" d="M209.7,402.9l33.4-0.3l0.9-0.2v-0.2l-6.7-0.3h-2.4l-26.3-0.2l-0.7,0.2l-0.9-0.2h-1.1l-0.8,0.2l-0.1-0.2&#10;&#9;&#9;L204,402h-2l-2,0.3v0.3L209.7,402.9L209.7,402.9z M185.4,402.9l8.7-0.3l0.1-0.2v-0.2L192,402h-1.2l-0.8-0.2l-0.1,0.2h-0.1l-0.5-0.2&#10;&#9;&#9;l-0.4,0.2l-0.5-0.2l-0.4,0.2l-0.5-0.2l-25.6,0.2l-4-0.2l-7.4,0.5v0.2l0.8,0.2L185.4,402.9L185.4,402.9z M197.2,404.4&#10;&#9;&#9;c0.2,0,0.3-0.3,0.3-0.9c0.2,0,0.3,0.3,0.4,0.8h0.3v-0.8h-0.3v-0.3l0.9,0.3V403l-0.5-0.2v-0.3h0.8v-0.2c0-0.2-0.1-0.3-0.4-0.3&#10;&#9;&#9;l-0.4,0.1l-0.1-0.1V402c0.4-0.2,0.6-0.4,0.7-0.6v-0.2h-0.3l-0.4,0.3h-0.3l0.4-0.9l-0.1-0.1H198c-0.1,0.4-0.3,0.6-0.4,0.6h-0.3v-0.2&#10;&#9;&#9;l0.1-0.5l-0.1-0.2h-0.1c-0.2,0-0.3,0.3-0.3,0.9c-0.2,0-0.3-0.2-0.3-0.6h-0.4v0.2l0.1,0.8h-0.1l-0.4-0.3h-0.3v0.2l0.7,0.8v0.1&#10;&#9;&#9;l-0.7-0.1l-0.1,0.1v0.3h0.7v0.3c-0.4,0-0.5,0.2-0.5,0.5l0.1,0.2h0.1l0.5-0.3v0.1l-0.1,0.9h0.1c0.2,0,0.3-0.2,0.3-0.6l0.1-0.2h0.1&#10;&#9;&#9;C196.9,404.1,197,404.4,197.2,404.4L197.2,404.4z M205.4,405v-0.1c0.3,0,0.6,0.1,0.9,0.5l0.1-0.2l0.1,0.2v0.1l-0.1,0.2h-0.5&#10;&#9;&#9;L205.4,405L205.4,405z M187.9,405.6v-0.3l0.9-0.5l0.1,0.1v0.3l-0.5,0.3H187.9L187.9,405.6z M204.8,406.1l0.3-0.3l-0.3-0.3v-0.7h0.3&#10;&#9;&#9;v0.7c0.1,0.4,0.5,0.6,0.9,0.6h0.1c0.6,0,0.9-0.3,0.9-0.9c-0.2-0.6-0.5-1-0.9-1.2h-1.1c-0.5,0.3-0.7,0.7-0.7,1.2&#10;&#9;&#9;C204.5,405.8,204.6,406.1,204.8,406.1L204.8,406.1z M187.9,406.1h0.4c0.7,0,1.1-0.4,1.1-1.2l0.3,0.3l-0.3,0.8l0.1,0.1h0.1l0.3-0.9&#10;&#9;&#9;c0-0.6-0.2-1-0.7-1.2h-1.1c-0.4,0.2-0.8,0.6-0.9,1.2C187.3,405.6,187.5,405.9,187.9,406.1L187.9,406.1z M203.5,406.7v-0.2&#10;&#9;&#9;c0-0.2-0.9-0.8-2.7-1.8v0.3C201.8,406.1,202.7,406.7,203.5,406.7L203.5,406.7z M190.8,406.7h0.1c0.7-0.1,1.6-0.6,2.7-1.7l-0.1-0.5&#10;&#9;&#9;l-2.7,1.8V406.7L190.8,406.7z M201.7,407h0.4v-0.2l-1.5-1.5h-0.1l-0.3,0.3c0.4,0,0.5,0.2,0.5,0.6h0.3v0.3&#10;&#9;&#9;C201.5,406.5,201.7,406.7,201.7,407L201.7,407z M201.2,407.1V407c-0.6-0.7-0.9-1.2-0.9-1.4h-0.1l-0.1,0.2h-0.1&#10;&#9;&#9;C200.2,406.7,200.7,407.1,201.2,407.1L201.2,407.1z M193.2,407.3c0.3,0,0.7-0.5,1.2-1.4l0.1,0.1v-0.1l-0.3-0.3l-0.5,0.5v-0.1&#10;&#9;&#9;l0.1-0.2h0.1l-0.1-0.5h-0.1c-0.8,0.6-1.3,1-1.5,1.4v0.3h0.1l1.1-0.8v0.2l-0.3,0.5V407.3L193.2,407.3z M197.6,409.5h0.3&#10;&#9;&#9;c0.4,0,0.8-0.8,1.2-2.3c0.2,0,0.3,0.2,0.3,0.6h0.1l0.3-0.3l-0.1-0.6h0.3c0,0.4,0.1,0.6,0.3,0.6h0.1v-0.8c-0.3-0.5-0.5-0.8-0.8-0.8&#10;&#9;&#9;l-0.7,0.3v-0.2l-0.1-0.6h0.8c0.5-0.3,0.8-0.7,0.8-1.2v-0.5h0.3c0,0.4,0.5,0.6,1.5,0.8h0.8c0.6,0,1.4-0.3,2.4-1.1h0.5&#10;&#9;&#9;c1,0.2,1.5,0.6,1.5,1.1h0.3c0-0.7-0.6-1.2-1.7-1.5h-0.1l-2,0.8l-0.8,0.3h-0.7c-1.1-0.3-1.6-0.7-1.6-1.2h-0.1&#10;&#9;&#9;c-0.3,0.1-0.6,0.7-0.9,1.8l-1.3,0.5v0.1l0.4,2.1C198.5,408.1,198.2,408.7,197.6,409.5L197.6,409.5z M196.5,409.5h0.1v-0.3&#10;&#9;&#9;c-0.5-0.7-0.8-1.3-0.8-1.8v-0.2c0-0.5,0.1-1,0.4-1.4v-0.3c-0.2-0.3-0.7-0.6-1.5-0.9c-0.2-1.1-0.5-1.7-0.8-1.7&#10;&#9;&#9;c-0.4,0.8-1.1,1.2-1.9,1.2h-0.5l-2.4-1.1h-0.3c-0.9,0-1.6,0.5-2.2,1.4l0.1,0.2h0.1c0.6-0.7,1.2-1.1,1.9-1.1l2.7,1.1h0.8&#10;&#9;&#9;c0.4,0,0.9-0.2,1.6-0.6c0.1,1,0.6,1.5,1.3,1.5h0.4v0.5l-0.1,0.2v0.2l-0.8-0.3l-0.8,1.2v0.3h0.3c0.2,0,0.3-0.2,0.3-0.5l0.1-0.1h0.1&#10;&#9;&#9;v0.9h0.3l0.1-0.8h0.3v0.5C195.8,408.9,196.1,409.5,196.5,409.5L196.5,409.5z" style="fill: rgb(255, 255, 255);" transform="matrix(1, 0, 0, 1, 0, 0)"/><path class="st3" d="M325.1,475.4h0.5l0.3-0.3v-0.6l-0.5-0.5c-0.2,0-0.5,0.2-0.7,0.8L325.1,475.4L325.1,475.4z M317.1,475.4h0.1&#10;&#9;&#9;l0.3-0.3v-0.6c0-0.2-0.2-0.3-0.5-0.5c-0.4,0.1-0.5,0.3-0.5,0.5v0.8L317.1,475.4L317.1,475.4z M305.1,475.4h0.1&#10;&#9;&#9;c0.2,0,0.3-0.1,0.3-0.5l0.5-0.6h0.1v0.3H306l0.1,0.6c0.2,0,0.3-0.2,0.3-0.5l0.1-0.1h0.1l0.1,0.7c0.2,0,0.3-0.1,0.3-0.5l-0.3-0.9&#10;&#9;&#9;h0.3c0,0.3,0.2,0.6,0.7,0.9v-0.3l-0.4-0.8h0.3l0.7,0.5v-0.3l-0.7-0.8v-0.2l1.1,0.3h0.1v-0.2c-0.4-0.1-0.7-0.2-0.7-0.5l0.5-0.2&#10;&#9;&#9;l-0.5-0.7c0-0.2,0.2-0.3,0.7-0.3v-0.3h-0.4l-0.4,0.3h-0.3v-0.1c0.2-0.4,0.5-0.6,0.7-0.6v-0.3h-0.1l-0.4,0.3h-0.4v-0.2l0.5-0.8h-0.1&#10;&#9;&#9;l-0.8,0.6h-0.1l0.3-1.2c-0.2,0-0.3,0.3-0.5,0.9h-0.1l-0.1-0.9h-0.3v0.9h-0.3l-0.1-1.1h-0.3v1.1h-0.1c-0.2,0-0.3-0.2-0.3-0.6&#10;&#9;&#9;l-0.4-0.2v0.2l0.4,0.9l-0.1,0.2h-0.1L304,470v0.2l0.7,1.1l-0.1,0.2h-0.1c0-0.3-0.3-0.5-0.8-0.8v0.3c0,0.3,0.2,0.4,0.7,0.5v0.3h-0.9&#10;&#9;&#9;v0.3l0.9,0.1v0.3h-0.9v0.2c0,0.2,0.3,0.3,0.9,0.3c0,0.2-0.3,0.4-0.8,0.6v0.2h0.1l0.9-0.2l-0.7,0.9v0.2h0.1l0.7-0.6h0.3l-0.4,1.1&#10;&#9;&#9;v0.2h0.1l0.5-0.9v-0.1l0.3,0.3L305.1,475.4L305.1,475.4z M295,475.4h0.4c0.3-0.1,0.4-0.4,0.4-0.9l-0.4-0.3h-0.1l-0.7,0.2v0.2&#10;&#9;&#9;C294.6,475.1,294.7,475.4,295,475.4L295,475.4z M286.3,475.4h0.7l0.3-0.3v-0.6l-0.5-0.5c-0.4,0.2-0.7,0.5-0.7,0.9&#10;&#9;&#9;C286.2,475,286.3,475.1,286.3,475.4L286.3,475.4z M293.1,476h0.5l0.5-0.6v-0.9l-0.3-0.3l-0.5-0.1c-0.4,0.1-0.6,0.4-0.8,0.8v0.2&#10;&#9;&#9;C292.5,475.5,292.7,475.9,293.1,476L293.1,476z M288.3,476h0.1c0.5,0,0.8-0.3,0.8-0.9v-0.5l-0.4-0.5h-0.7l-0.5,0.6v0.5L288.3,476&#10;&#9;&#9;L288.3,476z M323.5,476.2c0.5-0.2,0.8-0.4,0.8-0.6v-0.9c0-0.2-0.3-0.4-0.8-0.6c-0.5,0.2-0.8,0.6-0.8,1.2&#10;&#9;&#9;C322.7,475.5,323,475.8,323.5,476.2L323.5,476.2z M318.7,476.2c0.3-0.1,0.7-0.4,1.1-1.1c0-0.3-0.3-0.7-0.9-1.1&#10;&#9;&#9;c-0.5,0.2-0.8,0.4-0.8,0.6v0.7L318.7,476.2L318.7,476.2z M302.8,473.2v-2c0.7-1.7,1.8-2.6,3.5-2.6c2.1,0.4,3.1,1.5,3.1,3.3v0.7&#10;&#9;&#9;c-0.4,2.2-1.4,3.3-3,3.3l-0.5,0.2C303.8,475.6,302.8,474.6,302.8,473.2L302.8,473.2z M321.2,476.8c0.4,0,0.8-0.3,1.1-0.9v-0.5&#10;&#9;&#9;c-0.1-0.9-0.5-1.4-1.1-1.4c-0.8,0.1-1.2,0.6-1.2,1.4C320.1,476.4,320.5,476.8,321.2,476.8L321.2,476.8z M290.9,476.8&#10;&#9;&#9;c0.8-0.1,1.2-0.6,1.2-1.4v-0.3c-0.2-0.6-0.6-0.9-1.1-0.9h-0.5c-0.4,0.2-0.7,0.6-0.7,1.4v0.3C290.2,476.5,290.6,476.8,290.9,476.8&#10;&#9;&#9;L290.9,476.8z M305.1,478.5V478h-0.3v0.2L305.1,478.5L305.1,478.5z M305.5,478.6l0.3-0.3v-0.6l-0.3,0.3V478.6L305.5,478.6z&#10;&#9;&#9; M306.8,479.1v-0.1l-0.5-1.8H306l-0.3,0.3l0.7,0.7C306.5,478.8,306.6,479.1,306.8,479.1L306.8,479.1z M309.6,478.9v-0.2&#10;&#9;&#9;c1.9-0.9,3.3-1.4,4.2-1.4c1.4,0.2,2.2,0.4,2.2,0.7c-0.4,1.1-1.7,1.7-3.6,1.7h-0.1C310.5,479.6,309.6,479.3,309.6,478.9L309.6,478.9&#10;&#9;&#9;z M296,478c0.5-0.3,1.3-0.5,2.3-0.6c0.9,0,2.3,0.5,4.2,1.4v0.2c0,0.4-0.9,0.7-2.6,0.9C297.3,479.6,296,479,296,478L296,478z&#10;&#9;&#9; M312.9,480.7c2.4-0.2,3.6-1.1,3.6-2.6V478c0-0.8-0.9-1.3-2.8-1.5c-1.4,0-3,0.6-4.7,1.8h-0.5l-0.4-0.5c1.1-1.2,2.8-1.8,5-1.8&#10;&#9;&#9;c1.3,0,3.9,0.8,7.8,2.3h1.6c0.6,0,2.1-0.7,4.4-2.1l1.5-0.3l3,0.6V476c0-0.3-0.8-0.6-2.4-0.8c-0.7,0-2.8,0.6-6.3,1.8l-1.1,0.2h-0.9&#10;&#9;&#9;c-0.8,0-2.9-0.6-6.3-1.7l-2.4-0.5c-1.1,0-2.7,0.7-4.6,2l-0.1-0.2v-0.1l-0.1-0.2v-0.2c1.9-1,2.8-2.2,2.8-3.6H351&#10;&#9;&#9;c0,0.3,0.2,0.6,0.5,0.8h0.8c0.5-0.2,0.8-0.7,0.8-1.5c-0.3-0.7-0.7-1.1-1.2-1.1c-0.4,0-0.9,0.3-1.2,0.9h-0.3&#10;&#9;&#9;c-27-0.1-40.6-0.2-40.7-0.3c0-0.8-0.5-1.7-1.6-2.9l-2-0.8c-1.7,0-2.9,1-3.6,3c0,0.5-0.1,0.8-0.3,0.8l-41,0.2&#10;&#9;&#9;c-0.3-0.6-0.7-0.9-1.2-0.9c-0.8,0.2-1.2,0.6-1.2,1.2c0.2,0.8,0.5,1.2,0.8,1.4h0.8l0.8-0.8h41.1c0,1.6,1,2.8,3,3.8l0.4-0.2l0.1,0.2&#10;&#9;&#9;h0.1l0.5-0.2h0.3c0,1.4,1.4,2.8,4.2,3.9L312.9,480.7L312.9,480.7z M299.3,480.7c2,0,3.7-0.8,5.1-2.4c0.5-0.4,0.8-0.9,0.8-1.4&#10;&#9;&#9;l-0.7,0.2c-1.2-1.3-2.7-2-4.6-2l-7.8,2.1h-1.5c-0.7,0-2.9-0.6-6.3-1.8H282c-0.9,0.1-1.4,0.4-1.4,0.9l0.1,0.1h0.1l2.7-0.6&#10;&#9;&#9;c1.2,0,2.5,0.6,4,1.8l2,0.6h1.6c3.8-1.5,6.5-2.3,8.2-2.3c1.3,0,2.9,0.5,4.6,1.5v0.5l-0.3,0.3h-0.7c-1.7-1.2-3.4-1.8-5-1.8&#10;&#9;&#9;c-1.8,0.3-2.7,0.9-2.7,1.7c0.6,1.7,1.7,2.6,3.4,2.6H299.3L299.3,480.7z M312.6,483.8c1.9,0,3.5-0.8,4.7-2.4v-0.6l-0.3-0.3h-0.1&#10;&#9;&#9;c0,1-1.4,1.8-4.2,2.4h-0.1c-2.4,0-4-1.1-4.9-3.2l-0.4-1.4l-0.3,0.3c1,2.8,2,4.2,2.8,4.2C309.9,483.2,310.8,483.5,312.6,483.8&#10;&#9;&#9;L312.6,483.8z M299.3,483.8c2.6,0,4.4-1.4,5.4-4.1l0.1-0.6v-0.1h-0.3c-0.7,2.6-2.4,3.9-5.1,3.9c-1.6,0-3.1-0.8-4.4-2.4l-0.3,0.6&#10;&#9;&#9;C295.8,482.9,297.3,483.8,299.3,483.8L299.3,483.8z M306.1,484.1c0.8-0.4,1.2-1.3,1.2-2.7c-0.2-1.4-0.4-2.1-0.5-2.1v0.5&#10;&#9;&#9;c0,0.7,0.1,1.1,0.3,1.1c-0.2,1.5-0.6,2.3-0.9,2.3h-0.3c-0.5-0.5-0.8-1.2-0.8-2.3l0.4-1.8h-0.1c-0.2,0-0.3,0.4-0.3,1.2l-0.1,0.1&#10;&#9;&#9;l-0.3,0.8C304.9,483.1,305.4,484.1,306.1,484.1L306.1,484.1z" style="fill: rgb(255, 255, 255);" transform="matrix(1, 0, 0, 1, 0, 0)"/><path class="st3" d="M412,406.4h0.4v0.2c-1.3,1.8-1.9,3.1-1.9,3.8l-0.9-0.2h-0.3v-0.5C409.3,408.8,410.2,407.6,412,406.4L412,406.4&#10;&#9;&#9;z M417.8,406.2c0,0.2,0.6,0.8,1.9,1.8l0.7,1.2v0.9H420l-0.7,0.2c-0.8-1.9-1.5-3.2-2-3.8v-0.2L417.8,406.2L417.8,406.2z&#10;&#9;&#9; M417.8,406.1h0.5c1.5,0.3,2.9,1.3,4.3,2.7l0.3,0.6c-0.5,0.3-0.8,0.6-0.8,0.8h-0.3l-2.6-3L417.8,406.1L417.8,406.1z M411.3,406.1&#10;&#9;&#9;h0.5c-1.2,0.9-2.3,1.8-3.2,2.9c0,0.3-0.3,0.8-0.8,1.2h-0.1l-0.9-0.8c0-0.7,0.9-1.5,2.8-2.6C410.4,406.3,411,406.1,411.3,406.1&#10;&#9;&#9;L411.3,406.1z M418.5,405.4h0.1c3.9,0.6,5.8,1.4,5.8,2.3c-0.2,0.7-0.4,1-0.7,1.1c-1.4-1.2-3.1-2.2-5.1-3l-0.1-0.1V405.4&#10;&#9;&#9;L418.5,405.4z M411.2,405.4v0.2c0,0.2-1,0.6-3,1.4c-1.4,1.2-2.2,1.8-2.4,1.8l-0.5-0.9v-0.3C405.3,406.8,407.3,406.1,411.2,405.4&#10;&#9;&#9;L411.2,405.4z M423.9,403.6h0.7l0.3,0.8l-0.1,0.2l0.1,0.1h5.5c0.4-0.4,0.7-0.6,1.1-0.6c0.3,0,0.4,0.1,0.4,0.5l0.1,0.1h0.9&#10;&#9;&#9;c0.4,0,0.7-0.1,0.7-0.5h0.5l0.5,0.5h1.2l0.5-0.5c0.3,0.3,0.6,0.5,0.9,0.5h20.9c0.4,0,1-0.3,1.7-1.1l2,1.4v0.2l-2.2,1.1&#10;&#9;&#9;c0-0.2-0.4-0.5-1.2-1.1h-21.3l-1.1,0.3l-0.4-0.3h-1.2l-0.7,0.5l-0.7-0.5H432v0.3l-0.3,0.3H431c-0.2,0-0.4-0.2-0.4-0.6h-5.9l0.1,0.1&#10;&#9;&#9;c-0.2,0.6-0.4,0.9-0.5,0.9h-0.4c-3.1-0.7-4.6-1.2-4.6-1.4l3.1-0.8C422.9,403.8,423.4,403.7,423.9,403.6L423.9,403.6z M412.8,403.6&#10;&#9;&#9;l1.6,1.2h0.1v-0.9h0.5v0.9h0.1l1.6-1.2l2,1.2l-1.7,1.2H417c-0.3,0-0.8-0.3-1.6-0.9h-0.3v0.7h-0.5V405l-1.9,1.1l-1.9-1.2&#10;&#9;&#9;L412.8,403.6L412.8,403.6z M369.6,403.6c1,0.7,1.6,1.1,1.9,1.1h21.3l0.5-0.5l0.5,0.5h1.2l0.5-0.5h0.3l0.5,0.5h1.2l0.7-0.6&#10;&#9;&#9;c0.3,0,0.7,0.2,1.1,0.6h5.4l0.5-1.1h0.5l4.4,1.2l0.1,0.2v0.2H410l-4.2,1.1h-0.4l-0.5-0.6l0.1-0.2l-0.1-0.2l0.1-0.1h-5.9&#10;&#9;&#9;c0,0.4-0.1,0.6-0.4,0.6H398v-0.3l-0.3-0.3h-1.3l-0.7,0.5c-0.3,0-0.4-0.2-0.4-0.5h-1.1l-1.1,0.3l-0.8-0.3h-21.3l-1.2,0.9h-0.1&#10;&#9;&#9;l-2-0.9V405L369.6,403.6L369.6,403.6z M423.9,401.1l0.5,1.2c0,0.6-1.6,1.3-4.7,2h-1.1v-0.3c0.9-0.1,2.4-0.9,4.6-2.4&#10;&#9;&#9;C423.2,401.3,423.4,401.1,423.9,401.1L423.9,401.1z M406,401.1c2.5,1.9,4.2,2.9,5.1,2.9v0.3h-0.7c-3.1-0.5-4.6-1-4.6-1.5&#10;&#9;&#9;c-0.4,0-0.5-0.2-0.5-0.5v-0.2L406,401.1L406,401.1z M421.6,399.7h0.4l0.9,0.7c-0.2,0.9-1.5,2-4,3.2l-0.8,0.3h-0.3v-0.2&#10;&#9;&#9;C420,402.3,421.2,400.9,421.6,399.7L421.6,399.7z M407.7,399.7h0.1c1.3,1.8,2.4,3,3.4,3.6c0.4,0,0.7,0.2,0.7,0.5v0.2h-0.3l-3-1.4&#10;&#9;&#9;c-1-0.8-1.6-1.4-1.9-2C406.8,400.4,407.1,400.1,407.7,399.7L407.7,399.7z M419.4,399.5c0.6,0.1,0.9,0.2,0.9,0.5v0.3&#10;&#9;&#9;c0,0.9-0.9,1.9-2.8,3.2h-0.3v-0.2c0.8-1,1.4-2.3,1.9-3.6l0.1-0.2H419.4L419.4,399.5z M410.4,399.5c0.7,1.8,1.4,3.1,2,3.8v0.2&#10;&#9;&#9;c-0.8,0-1.9-1-3.1-2.9V400C409.3,399.7,409.7,399.6,410.4,399.5L410.4,399.5z" style="fill: rgb(255, 255, 255);" transform="matrix(1, 0, 0, 1, 0, 0)"/><path class="st3" d="M198.2,477c0.5,0,1.1,0.2,1.8,0.8c0.8,0.5,1.2,1.1,1.2,1.7v0.3c-0.1,0.3-0.4,0.5-0.8,0.5h-0.1&#10;&#9;&#9;c-0.8-0.5-1.5-1.2-2-2.1l-0.3-0.5v-0.3L198.2,477L198.2,477z M195.8,477h0.3l0.3,0.3c0,0.8-0.8,1.8-2.3,2.9h-0.1&#10;&#9;&#9;c-0.5,0-0.7-0.2-0.8-0.5v-0.6C194.1,477.8,195,477.1,195.8,477L195.8,477z M205.6,473c0,1.4,1.1,2.4,3.2,2.7h31&#10;&#9;&#9;c0.4-0.4,1.1-0.7,2-0.7l1.2-0.9h0.3c0.6,0.4,0.9,1.1,0.9,2.1c0,0.7-0.3,1.3-0.9,1.8h-0.3c-0.5-0.6-1.7-1.1-3.5-1.7h-29.8&#10;&#9;&#9;c-2.2,0-3.6,0.7-4.2,2.1v0.5c-1.1-1.7-2.1-2.6-2.8-2.6c0-0.2-0.2-0.3-0.5-0.3c0-0.2,0.3-0.3,0.9-0.3c1.3-0.8,2-1.7,2.3-2.7H205.6&#10;&#9;&#9;L205.6,473z M188.7,473c1.1,1.9,2.2,2.9,3.4,2.9v0.2c-0.8,0-1.7,0.8-3,2.3c0,0.4-0.1,0.6-0.4,0.6c0-0.8-0.4-1.4-1.3-2&#10;&#9;&#9;c-0.6-0.4-1.5-0.6-2.8-0.6h-30l-2.8,1.2l-0.4,0.5h-0.3c-0.6-0.5-0.9-1.1-0.9-2c0-0.8,0.3-1.5,0.9-2h0.3c0.7,0.7,1.7,1.1,3,1.4&#10;&#9;&#9;l0.3,0.3h31C187.6,475.4,188.7,474.5,188.7,473L188.7,473z M200.9,472l0.3,0.5v0.3c0,0.7-0.8,1.5-2.4,2.4H198v-0.3&#10;&#9;&#9;c0-0.8,0.7-1.7,2.2-2.7L200.9,472L200.9,472z M193.5,472c1.2,0,2.1,1,2.8,2.9v0.3h-0.4c-1.9-0.7-2.8-1.5-2.8-2.4v-0.3L193.5,472&#10;&#9;&#9;L193.5,472z" style="fill: rgb(255, 255, 255);" transform="matrix(1, 0, 0, 1, 0, 0)"/><path class="st3" d="M306.2,401.9l0.1-0.9h0.1l0.8,0.6l0.1-0.2v-0.2l-0.3-0.3v-0.6l0.9-0.2h14.7l2.8,1.1c0.4-0.3,1.4-0.7,2.8-1.1&#10;&#9;&#9;h18.5l1.9,1.4c1.1-1.1,2.4-1.7,4-1.7v-0.3h-0.4c-1.2,0-2.5-0.5-3.8-1.5l-1.6,1.2h-18.3c-0.9,0-2-0.3-3.4-1.1c0,0.2-0.8,0.6-2.3,1.1&#10;&#9;&#9;h-15.5v-0.2l0.3-0.5v-0.2l-0.9,0.3v-1.2h-0.3c-0.1,0.5-0.2,0.8-0.4,0.8l-0.7-0.8h-0.1v1.1l-0.9-0.2h-0.1l0.5,0.8H289l-2.6-1.1&#10;&#9;&#9;c-0.9,0.7-2,1.1-3.2,1.1H265l-1.6-1.2c-1.1,0.8-2.1,1.3-3.2,1.5h-0.9v0.3c1.4,0,2.8,0.6,4.2,1.7l1.8-1.4h18.2&#10;&#9;&#9;c0.6,0,1.6,0.4,3.1,1.1l2.8-1.1h15.6l0.3,0.3v0.1h-0.3v0.6h0.3l0.4-0.3c0.2,0,0.3,0.2,0.3,0.8l0.1,0.2H306.2L306.2,401.9z&#10;&#9;&#9; M331.7,403.4h0.5c0.6,0,0.9-0.3,0.9-1.1c-0.2-0.5-0.6-0.8-1.1-0.8c-0.5,0-0.9,0.3-1.1,0.9C331.1,402.9,331.3,403.3,331.7,403.4&#10;&#9;&#9;L331.7,403.4z M279.8,403.4h0.1c0.5,0,0.8-0.2,0.9-0.6v-0.6c-0.1-0.4-0.4-0.6-0.9-0.6c-0.8,0.1-1.2,0.6-1.2,1.2&#10;&#9;&#9;C279.1,403.2,279.5,403.4,279.8,403.4L279.8,403.4z M310.7,403.6h0.5c0.8,0,2.9-0.5,6.2-1.5c0.7-0.3,1.5-0.5,2.3-0.5h1.9&#10;&#9;&#9;c0.6,0,1.3,0.2,2.3,0.6h0.1V402c-1.3-0.7-2.5-1.1-3.8-1.1h-0.5c-1.1,0-3.7,0.6-7.7,1.8l-1.6,0.2c-0.2-0.6-0.4-0.9-0.5-0.9h-0.7&#10;&#9;&#9;l-0.4,0.5v0.5C308.8,403.3,309.4,403.5,310.7,403.6L310.7,403.6z M301.3,403.6c1,0,1.7-0.2,2-0.8c-0.2-0.5-0.4-0.7-0.5-0.7H302&#10;&#9;&#9;c-0.3,0-0.4,0.3-0.4,0.9h-0.3c-0.9,0-3.3-0.6-7.3-1.8l-1.7-0.2h-0.8c-2.2,0.3-3.2,0.7-3.2,1.1h0.1l2-0.5h1.2c1.3,0,4,0.6,8.4,2&#10;&#9;&#9;H301.3L301.3,403.6z M331.5,404.5c1.8-0.2,2.7-0.8,2.7-1.8c0-0.4-0.3-0.9-0.9-1.4v0.2c0.3,0.4,0.4,0.8,0.4,1.2&#10;&#9;&#9;c0,0.7-0.8,1.3-2.3,1.7l-0.4-0.2h-0.1v0.2L331.5,404.5L331.5,404.5z M280.3,404.5h0.5v-0.1c-1.7-0.2-2.6-0.8-2.6-1.8l0.3-1.1&#10;&#9;&#9;c-0.2,0-0.5,0.3-0.8,0.9v0.8C278.4,404,279.3,404.5,280.3,404.5L280.3,404.5z M307.1,405.7h0.8c0.3-0.3,0.7-0.5,0.9-0.5h0.3&#10;&#9;&#9;l0.7,0.2v-0.3l-0.5-0.1v-0.3h0.3v-0.2c-1.6,0.1-2.4,0.4-2.4,0.9V405.7L307.1,405.7z M305,406l0.9-0.9l0.9,0.9h0.1l-0.1-0.8&#10;&#9;&#9;c0-0.6,0.5-0.9,1.4-0.9h0.7V404l-1.5-0.3c-0.6,0.2-1.1,0.5-1.5,0.9c-0.6-0.6-1-0.9-1.3-0.9c-1.2,0.2-1.7,0.4-1.7,0.6h1.1&#10;&#9;&#9;c0.8,0.2,1.2,0.5,1.2,0.7v0.6h-0.3c0-0.4-0.3-0.8-0.8-1.1h-1.3l-0.4,0.5c-0.3,0-0.4,0.1-0.4,0.3l0.9-0.2h0.3L305,406L305,406z&#10;&#9;&#9; M312.1,407.5h0.1l-1.5-1.7h-0.1C311,406.5,311.5,407.1,312.1,407.5L312.1,407.5z M313.5,410.1h0.3c1.4,0,2.2-0.6,2.2-1.7&#10;&#9;&#9;c1.1,0,1.9-0.8,2.3-2.3l-0.1-0.9c0.6-1,1.4-1.5,2.4-1.5l2.6-0.2c1.8,0,3.2,0.3,4.2,1.1v-0.2c0-0.2-0.3-0.4-0.8-0.6v-0.1l4.6-2.4&#10;&#9;&#9;l1.5-0.1l0.5,0.1c0-0.2-0.4-0.4-1.2-0.6c-0.9,0-2.4,0.8-4.6,2.3c-0.6,0-1,0.2-1.3,0.6h-0.1v-0.3h-0.3l-2.2-0.3h-1.6&#10;&#9;&#9;c-1,0-3.1,0.4-6.5,1.1h-1.6l-0.4-0.3v0.1c0.3,0.5,0.8,0.8,1.5,0.8h1.6l1.1-0.3v0.1c-0.7,0.9-1.7,1.4-3.1,1.4l-0.1,0.2l-2.8-0.8&#10;&#9;&#9;h-0.3v0.2c1.7,0.7,2.8,1.1,3.2,1.1h1.1c0.6,0,1.3-0.3,2-0.8v0.8c0,0.6-0.9,1.1-2.7,1.5h-0.5l-1.9-0.5c0,0.3,0.5,0.6,1.6,0.9h1.1&#10;&#9;&#9;v0.3c0,0.3-0.4,0.6-1.4,0.8h-1.3C312.3,409.7,312.7,409.9,313.5,410.1L313.5,410.1z M297.8,410.1h0.4l1.5-0.5v-0.2&#10;&#9;&#9;c-1.9,0-2.8-0.3-2.8-0.9l0.1-0.2h1.3c1.2-0.5,2.2-1.4,3-2.6v-0.2c-0.2,0-0.7,0.6-1.6,1.7c-0.7,0.4-1.5,0.6-2.3,0.6&#10;&#9;&#9;c-1.5,0-2.5-0.7-3-2l0.1-0.2h0.1c0.8,0.4,1.4,0.6,1.9,0.6h0.7c0.8,0,2-0.4,3.5-1.1v-0.2h-0.1L298,406c-1.4,0-2.5-0.5-3.4-1.5v-0.1&#10;&#9;&#9;l0.8,0.3h1.9l1.2-0.3V404h-2.2c-2.8-0.7-4.9-1.1-6.5-1.1h-1.2c-1.5,0.2-2.3,0.4-2.6,0.6h-0.4c0-0.5-0.4-0.8-1.4-0.8&#10;&#9;&#9;c-1.7-1.3-3-2-3.8-2h-0.5c-0.6,0-1,0.2-1.1,0.5l0.8-0.1c0.9,0,2.2,0.5,3.6,1.5l2.2,1.2c-0.5,0.2-0.8,0.4-0.8,0.6h0.3&#10;&#9;&#9;c0.8-0.6,2.1-0.9,4-0.9c2.8,0,4.2,0.3,4.2,1.1l0.7,0.5l-0.1,1.1v0.5c0.7,1.3,1.5,2,2.3,2C296.1,409.4,296.7,409.9,297.8,410.1&#10;&#9;&#9;L297.8,410.1z M307,411.4c0.3,0,0.4-0.4,0.5-1.2c0.2,0,0.3,0.3,0.4,1.1h0.1v-1.4h0.3l0.3,0.9h0.3l-0.4-2l1.1,1.1v-0.3&#10;&#9;&#9;c-0.7-2-1.4-3-2.2-3v-0.1h0.7l0.5,0.1l1.3-0.3c0.7,1.7,1.3,2.7,1.7,2.9h0.1c-0.7-2-1.4-3-1.9-3l-0.5-0.5h-0.8&#10;&#9;&#9;c-0.2,0.2-0.7,0.3-1.5,0.5v0.3c-0.3,0-0.7,0.3-1.2,0.9h-0.1c-0.4-0.9-1.1-1.4-2.3-1.4l-0.3-0.3h-0.7c-1.3,0.9-2,1.8-2,2.7l-0.8,1.1&#10;&#9;&#9;h0.3c0.6-0.4,1.3-1.4,1.9-3l0.5-0.2l0.8,0.3l1.1-0.1h0.3v0.1c-0.8,0-1.6,1.1-2.3,3.3h0.1l0.8-0.9h0.1l-0.3,1.7v0.2&#10;&#9;&#9;c0.2,0,0.3-0.3,0.5-0.9h0.3v1.1l0.3,0.3l0.1-1.1h0.1l0.1,1.1h0.3v-0.2c0-1.4,0.4-2.5,1.1-3.2C306.5,408,306.9,409.1,307,411.4&#10;&#9;&#9;L307,411.4z M305.8,412.2c0.5-0.8,0.8-1.8,0.8-3l-0.7-0.8c-0.4,0.1-0.5,0.4-0.5,0.9h-0.1L305.8,412.2L305.8,412.2z" style="fill: rgb(255, 255, 255);" transform="matrix(1, 0, 0, 1, 0, 0)"/><path class="st3" d="M417.7,481c0.5,0,0.9,0.4,1.4,1.2l1.7,0.5c0.9,0,1.9-0.6,3.2-1.7l0.1,0.2V481l0.6,0.4l0.6-0.2l1.7,0.2h0.2&#10;&#9;&#9;c0.5,0,0.8-0.1,0.8-0.4l0.6,0.4l0.6-0.2l0.2,0.2c-0.2,0.9-0.8,1.8-1.7,2.7l-1.4-1.5c-0.3,0-0.5,0.2-0.5,0.7c-1.5,1.5-3.2,2.2-5,2.2&#10;&#9;&#9;c-2.5,0-4.2-1.2-5.1-3.6l-0.2-0.5l0.2-0.2h0.2l0.6,0.2L417.7,481L417.7,481z M414.5,480.8l0.5,0.5c0,1.4-1,2.6-3.1,3.8l-3.2,0.3&#10;&#9;&#9;c-1.5-0.2-2.9-1.1-4.3-2.8l-1.8,1.4v-0.2l-1.4-2.2v-0.3l3.1-0.4l0.3,0.4h1.8l2,1v-0.2l1.2,0.5c0.7,0,1.9-0.6,3.4-1.7l0.2,0.2h1.4&#10;&#9;&#9;V480.8L414.5,480.8z M455.8,478.4l0.2,0.2h0.2l2.3-0.2l0.8,0.2l1.2-0.2h0.8l0.2,0.2h0.2l-0.2,0.5h-0.9l-0.2-0.2l-0.5,0.2l-0.6-0.2&#10;&#9;&#9;c-5.7,0.2-9,0.5-10.1,0.9l-0.8-0.2l-1.2,0.2l-0.5-0.2l-6.4,0.5V480l-0.8,0.3l-0.8-0.2c-2.4,0.1-3.7,0.3-4,0.5l-0.2-0.2h-0.1&#10;&#9;&#9;l-0.6,0.2h-0.2v-0.2l1.7-1.9h19.6L455.8,478.4L455.8,478.4z M369.4,478.4l8,0.2h0.5l0.6-0.2l0.6,0.2h0.2l0.5-0.2l0.8,0.2h12.9&#10;&#9;&#9;l0.6-0.2c1,0,1.9,0.7,2.8,2.1v0.2h-0.2l-0.5-0.2v0.2l-0.8-0.4l-10.3-0.5v-0.2l-0.2,0.2h-0.1l-0.5-0.2l-0.1,0.2l-0.6-0.2l-12.4-0.7&#10;&#9;&#9;l-0.2,0.2h-0.2l-2.6-0.3v-0.2L369.4,478.4L369.4,478.4z M432.7,477.5l1.1,0.2l0.6-0.2v0.5c-1.2,1.7-2.1,2.6-2.8,2.9l-0.3,0.5&#10;&#9;&#9;l-3.1-0.2l-1.4,0.2l-0.9-0.2l-1.5,0.2v-0.3l0.9-1.5c0.7-1.2,1.4-1.7,2-1.7l2.2-0.2h1.8L432.7,477.5L432.7,477.5z M402.8,477.4&#10;&#9;&#9;c0,0.2,0.4,0.5,1.1,0.7l0.2-0.2l2,3.3l-0.3,0.3l-0.6-0.2l-0.1,0.2l-0.8-0.2h-3.5l-0.1,0.2l-0.2-0.2h-0.2l-0.1,0.2l-0.2-0.2h-0.2&#10;&#9;&#9;l-0.2,0.2h-0.1l-0.2-0.2l-0.2,0.2c0-0.3-0.5-0.8-1.5-1.4c-1.1-1.3-1.7-2.1-1.7-2.4l0.2-0.2h0.2l0.6,0.2l0.2-0.2h0.2l0.9,0.2&#10;&#9;&#9;l0.2-0.2l0.2,0.2h4L402.8,477.4L402.8,477.4z M409.1,476.9h4.9c0.7,0,1.1,0.4,1.1,1.2h0.3c0-0.8,0.4-1.2,1.1-1.2h4.8&#10;&#9;&#9;c-0.2,1.1-0.7,1.7-1.5,1.7h-1.5c-0.2,0-0.4,0.6-0.6,1.9l0.3,0.4v0.5l-0.3,0.3h-0.1l-0.2-0.5l-0.8,0.2H416l-0.9-0.2l-0.6,0.3v-0.2&#10;&#9;&#9;l-0.2,0.2h-0.1l-0.8-0.2l-0.6,0.2l-0.2-0.2v-0.9l0.2-0.7c-0.2-0.8-0.4-1.2-0.6-1.2h-1.4c-0.6,0-1.2-0.5-1.7-1.5V476.9L409.1,476.9z&#10;&#9;&#9; M410.8,471.1h0.2v1.7c0,1.8,0.7,3.3,2.1,4.5v0.2h-4.1v-0.9C408.9,474.8,409.6,473,410.8,471.1L410.8,471.1z M419.8,470.9&#10;&#9;&#9;c1.1,2.6,1.7,4.5,1.7,5.9l-0.2,0.7h-4v-0.2c1.4-1.3,2.1-2.7,2.1-4.5v-1.6L419.8,470.9L419.8,470.9z M415.5,466.6h0.2&#10;&#9;&#9;c1,1.4,1.7,3.4,2.1,5.9v1.9c-0.3,1.5-1,2.2-2,2.2h-0.3c-1.3-0.2-2-1.3-2-3.3C413.5,472,414.2,469.8,415.5,466.6L415.5,466.6z" style="fill: rgb(255, 255, 255);" transform="matrix(1, 0, 0, 1, 0, 0)"/>
</svg>